<svg width="60" height="60" viewBox="0 0 60 60" fill="none" xmlns="http://www.w3.org/2000/svg">
<rect width="60" height="60" rx="30" fill="#EFF3FD"/>
<path d="M30 38.75C34.8325 38.75 38.75 34.8325 38.75 30C38.75 25.1675 34.8325 21.25 30 21.25C25.1675 21.25 21.25 25.1675 21.25 30C21.25 34.8325 25.1675 38.75 30 38.75Z" stroke="#2889E3" stroke-width="2" stroke-linecap="round" stroke-linejoin="round"/>
<path d="M30 26.25V30L31.875 31.875" stroke="#2889E3" stroke-width="2" stroke-linecap="round" stroke-linejoin="round"/>
<path d="M35.6371 36.6875L35.1996 41.475C35.1433 42.0983 34.8552 42.6778 34.3924 43.0991C33.9295 43.5203 33.3254 43.7526 32.6996 43.75H27.2871C26.6613 43.7526 26.0572 43.5203 25.5944 43.0991C25.1315 42.6778 24.8434 42.0983 24.7871 41.475L24.3496 36.6875M24.3621 23.3125L24.7996 18.525C24.8557 17.9039 25.142 17.3261 25.6023 16.9052C26.0625 16.4843 26.6634 16.2506 27.2871 16.25H32.7246C33.3504 16.2475 33.9545 16.4798 34.4174 16.901C34.8802 17.3222 35.1683 17.9017 35.2246 18.525L35.6621 23.3125" stroke="#2889E3" stroke-width="2" stroke-linecap="round" stroke-linejoin="round"/>
</svg>

