<svg width="37" height="37" viewBox="0 0 37 37" fill="none" xmlns="http://www.w3.org/2000/svg">
<path opacity="0.1" fill-rule="evenodd" clip-rule="evenodd" d="M18.5 36C28.165 36 36 28.165 36 18.5C36 8.83502 28.165 1 18.5 1C8.83502 1 1 8.83502 1 18.5C1 28.165 8.83502 36 18.5 36Z" stroke="white" stroke-width="1.5"/>
<path d="M24.0007 9.66663H21.5007C20.3956 9.66663 19.3358 10.1056 18.5544 10.887C17.773 11.6684 17.334 12.7282 17.334 13.8333V16.3333H14.834V19.6666H17.334V26.3333H20.6673V19.6666H23.1673L24.0007 16.3333H20.6673V13.8333C20.6673 13.6123 20.7551 13.4003 20.9114 13.244C21.0677 13.0878 21.2796 13 21.5007 13H24.0007V9.66663Z" fill="white"/>
</svg>
