<svg width="37" height="37" viewBox="0 0 37 37" fill="none" xmlns="http://www.w3.org/2000/svg">
<path opacity="0.1" fill-rule="evenodd" clip-rule="evenodd" d="M18.5 36C28.165 36 36 28.165 36 18.5C36 8.83502 28.165 1 18.5 1C8.83502 1 1 8.83502 1 18.5C1 28.165 8.83502 36 18.5 36Z" stroke="white" stroke-width="1.5"/>
<path d="M22.334 14.6666C23.6601 14.6666 24.9318 15.1934 25.8695 16.1311C26.8072 17.0688 27.334 18.3405 27.334 19.6666V25.5H24.0007V19.6666C24.0007 19.2246 23.8251 18.8007 23.5125 18.4881C23.1999 18.1756 22.776 18 22.334 18C21.892 18 21.468 18.1756 21.1555 18.4881C20.8429 18.8007 20.6673 19.2246 20.6673 19.6666V25.5H17.334V19.6666C17.334 18.3405 17.8608 17.0688 18.7985 16.1311C19.7361 15.1934 21.0079 14.6666 22.334 14.6666Z" fill="white"/>
<path d="M13.9993 15.5H10.666V25.5H13.9993V15.5Z" fill="white"/>
<path d="M12.3327 13C13.2532 13 13.9993 12.2538 13.9993 11.3333C13.9993 10.4128 13.2532 9.66663 12.3327 9.66663C11.4122 9.66663 10.666 10.4128 10.666 11.3333C10.666 12.2538 11.4122 13 12.3327 13Z" fill="white"/>
</svg>
