<svg width="60" height="60" viewBox="0 0 60 60" fill="none" xmlns="http://www.w3.org/2000/svg">
<rect width="60" height="60" rx="30" fill="#EFF3FD"/>
<path d="M35 35L30 30L25 35" stroke="#A728E3" stroke-width="2" stroke-linecap="round" stroke-linejoin="round"/>
<path d="M30 30V41.25" stroke="#A728E3" stroke-width="2" stroke-linecap="round" stroke-linejoin="round"/>
<path d="M40.4883 37.9875C41.7075 37.3228 42.6706 36.2711 43.2256 34.9983C43.7807 33.7254 43.8961 32.304 43.5536 30.9583C43.2111 29.6127 42.4302 28.4194 41.3341 27.5668C40.2381 26.7142 38.8894 26.2509 37.5008 26.25H35.9258C35.5474 24.7865 34.8423 23.4279 33.8632 22.2762C32.8842 21.1245 31.6569 20.2098 30.2734 19.6007C28.89 18.9917 27.3865 18.7042 25.876 18.7598C24.3654 18.8155 22.8871 19.2129 21.5523 19.9221C20.2174 20.6313 19.0607 21.6339 18.1691 22.8545C17.2775 24.0751 16.6742 25.4819 16.4045 26.9692C16.1349 28.4565 16.2059 29.9856 16.6123 31.4416C17.0187 32.8975 17.7499 34.2423 18.7508 35.375" stroke="#A728E3" stroke-width="2" stroke-linecap="round" stroke-linejoin="round"/>
<path d="M35 35L30 30L25 35" stroke="#A728E3" stroke-width="2" stroke-linecap="round" stroke-linejoin="round"/>
</svg>







