<svg width="60" height="60" viewBox="0 0 60 60" fill="none" xmlns="http://www.w3.org/2000/svg">
<rect width="60" height="60" rx="30" fill="#EFF3FD"/>
<path d="M43.1757 23.025C43.0272 22.4318 42.7248 21.8882 42.299 21.4493C41.8732 21.0103 41.3392 20.6915 40.7507 20.525C38.6007 20 30.0007 20 30.0007 20C30.0007 20 21.4007 20 19.2507 20.575C18.6623 20.7415 18.1282 21.0603 17.7024 21.4993C17.2766 21.9382 16.9742 22.4818 16.8257 23.075C16.4322 25.2569 16.2398 27.4704 16.2507 29.6875C16.2367 31.9213 16.4292 34.1516 16.8257 36.35C16.9894 36.9248 17.2986 37.4477 17.7234 37.8681C18.1482 38.2885 18.6742 38.5923 19.2507 38.75C21.4007 39.325 30.0007 39.325 30.0007 39.325C30.0007 39.325 38.6007 39.325 40.7507 38.75C41.3392 38.5835 41.8732 38.2647 42.299 37.8257C42.7248 37.3868 43.0272 36.8432 43.1757 36.25C43.5662 34.0845 43.7586 31.8879 43.7507 29.6875C43.7647 27.4537 43.5723 25.2234 43.1757 23.025V23.025Z" stroke="#A728E3" stroke-width="2" stroke-linecap="round" stroke-linejoin="round"/>
<path d="M27.1875 33.775L34.375 29.6875L27.1875 25.6V33.775Z" stroke="#A728E3" stroke-width="2" stroke-linecap="round" stroke-linejoin="round"/>
</svg>

